<svg width="256" height="256" viewBox="0 0 256 256" fill="none" xmlns="http://www.w3.org/2000/svg">
  <rect width="256" height="256" rx="56" fill="#10342C"/>
  <rect x="34" y="34" width="188" height="188" rx="40" fill="url(#paint0_linear_1_2)"/>
  <path d="M86 70H160C177.673 70 192 84.3269 192 102V154C192 171.673 177.673 186 160 186H98C80.3269 186 66 171.673 66 154V90C66 78.9543 74.9543 70 86 70Z" fill="#FFFDF7" fill-opacity="0.92"/>
  <path d="M96 98C96 92.4772 100.477 88 106 88H168C173.523 88 178 92.4772 178 98V110H96V98Z" fill="#196959"/>
  <path d="M96 126H160" stroke="#155B4A" stroke-width="10" stroke-linecap="round"/>
  <path d="M96 146H148" stroke="#2F7A68" stroke-width="10" stroke-linecap="round"/>
  <path d="M96 166H132" stroke="#8C5B1B" stroke-width="10" stroke-linecap="round"/>
  <path d="M74 122C74 94.3858 96.3858 72 124 72H128V184H124C96.3858 184 74 161.614 74 134V122Z" fill="#228874" fill-opacity="0.18"/>
  <defs>
    <linearGradient id="paint0_linear_1_2" x1="34" y1="34" x2="222" y2="222" gradientUnits="userSpaceOnUse">
      <stop stop-color="#155B4A"/>
      <stop offset="1" stop-color="#228874"/>
    </linearGradient>
  </defs>
</svg>
