<svg width="620" height="120" viewBox="0 0 620 120" fill="none" xmlns="http://www.w3.org/2000/svg">
  <rect x="8" y="8" width="104" height="104" rx="24" fill="#10342C"/>
  <rect x="24" y="24" width="72" height="72" rx="18" fill="url(#paint0_linear_2_2)"/>
  <path d="M38 42H66C72.6274 42 78 47.3726 78 54V74C78 80.6274 72.6274 86 66 86H44C37.3726 86 32 80.6274 32 74V48C32 44.6863 34.6863 42 38 42Z" fill="#FFFDF7" fill-opacity="0.92"/>
  <path d="M42 52C42 50.3431 43.3431 49 45 49H69C70.6569 49 72 50.3431 72 52V56H42V52Z" fill="#196959"/>
  <path d="M42 63H66" stroke="#155B4A" stroke-width="4.8" stroke-linecap="round"/>
  <path d="M42 72H61" stroke="#2F7A68" stroke-width="4.8" stroke-linecap="round"/>
  <path d="M42 81H55" stroke="#8C5B1B" stroke-width="4.8" stroke-linecap="round"/>
  <path d="M138 50.6H161.7L190.9 85V50.6H209.2V117H186.2L156.3 81.8V117H138V50.6Z" fill="#16362F"/>
  <path d="M224.2 50.6H275.4V67.7H243.3V76.3H272.4V92.2H243.3V117H224.2V50.6Z" fill="#16362F"/>
  <path d="M286.6 50.6H338.3V67.1H305.7V75.4H335.2V90.7H305.7V100.4H339.2V117H286.6V50.6Z" fill="#16362F"/>
  <path d="M352 50.6H371.1V84.1L395.5 50.6H418.1L392.4 83.9L419 117H395.8L378.6 94.6L371.1 103.7V117H352V50.6Z" fill="#16362F"/>
  <path d="M427.3 83.9C427.3 62.8 442.4 49.4 464.3 49.4C486.2 49.4 501.2 62.8 501.2 83.9C501.2 105 486.2 118.4 464.3 118.4C442.4 118.4 427.3 105 427.3 83.9ZM481.7 83.9C481.7 72.8 474.6 66.6 464.3 66.6C453.9 66.6 446.8 72.8 446.8 83.9C446.8 94.9 453.9 101.1 464.3 101.1C474.6 101.1 481.7 94.9 481.7 83.9Z" fill="#16362F"/>
  <path d="M513 50.6H532.1V83.2L558 50.6H579.9L553.9 80.5L581.4 117H557.8L541.9 94.8L532.1 106V117H513V50.6Z" fill="#16362F"/>
  <defs>
    <linearGradient id="paint0_linear_2_2" x1="24" y1="24" x2="96" y2="96" gradientUnits="userSpaceOnUse">
      <stop stop-color="#155B4A"/>
      <stop offset="1" stop-color="#228874"/>
    </linearGradient>
  </defs>
</svg>
