<svg width="64" height="64" viewBox="0 0 64 64" fill="none" xmlns="http://www.w3.org/2000/svg">
  <rect width="64" height="64" rx="16" fill="#10342C"/>
  <rect x="10" y="10" width="44" height="44" rx="12" fill="url(#paint0_linear_3_2)"/>
  <path d="M20 19H34C37.3137 19 40 21.6863 40 25V38C40 41.3137 37.3137 44 34 44H23C19.6863 44 17 41.3137 17 38V22C17 20.3431 18.3431 19 20 19Z" fill="#FFFDF7" fill-opacity="0.94"/>
  <path d="M22 24C22 23.1716 22.6716 22.5 23.5 22.5H35.5C36.3284 22.5 37 23.1716 37 24V26H22V24Z" fill="#196959"/>
  <path d="M22 30H34" stroke="#155B4A" stroke-width="3" stroke-linecap="round"/>
  <path d="M22 35H31" stroke="#2F7A68" stroke-width="3" stroke-linecap="round"/>
  <path d="M22 40H28" stroke="#8C5B1B" stroke-width="3" stroke-linecap="round"/>
  <defs>
    <linearGradient id="paint0_linear_3_2" x1="10" y1="10" x2="54" y2="54" gradientUnits="userSpaceOnUse">
      <stop stop-color="#155B4A"/>
      <stop offset="1" stop-color="#228874"/>
    </linearGradient>
  </defs>
</svg>
